PathFileType	4	(X/Y/Z)	41_1_15_p1_0-175_filt_butterworth.trc
DataRate	CameraRate	NumFrames	NumMarkers	Units	OrigDataRate	OrigDataStartFrame	OrigNumFrames
59.0	59.0	6	27	m	59.0	0	175
Frame#	Time	RHip			RKnee			RAnkle			RBigToe			RSmallToe			RHeel			LHip			LKnee			LAnkle			LBigToe			LSmallToe			LHeel			Neck			Head			Nose			RShoulder			RElbow			RWrist			RThumb			RIndex			RPinky			LShoulder			LElbow			LWrist			LThumb			LIndex			LPinky			
		X1	Y1	Z1	X2	Y2	Z2	X3	Y3	Z3	X4	Y4	Z4	X5	Y5	Z5	X6	Y6	Z6	X7	Y7	Z7	X8	Y8	Z8	X9	Y9	Z9	X10	Y10	Z10	X11	Y11	Z11	X12	Y12	Z12	X13	Y13	Z13	X14	Y14	Z14	X15	Y15	Z15	X16	Y16	Z16	X17	Y17	Z17	X18	Y18	Z18	X19	Y19	Z19	X20	Y20	Z20	X21	Y21	Z21	X22	Y22	Z22	X23	Y23	Z23	X24	Y24	Z24	X25	Y25	Z25	X26	Y26	Z26	X27	Y27	Z27	
0	0.0	0.34373521258525613	0.9982279977194995	0.4090670782132179	0.34211053841553163	0.5552542074919151	0.533619329939397	0.3796976664706756	0.13942161096373576	0.6472571876744961	0.3374125723742696	0.10755807274719997	0.5020975520464251	0.3970428251989798	0.10084554501471642	0.5301865498905852	0.3682184920834674	0.05472413309115534	0.7616948017674635	0.1567088899556671	0.9923002591923822	0.4026577785679893	0.17301610764049416	0.5526232547456678	0.6103320448610804	0.18577429429934544	0.125251940954579	0.6925704409699818	0.19359331145701428	0.11767312200909534	0.5091162868810156	0.138741446640201	0.09440056794894743	0.5772460337854971	0.20056483041496326	0.06348284994450953	0.7389406358875827	0.2298279451828861	1.5287202944393143	0.34684762082525145	0.23528630236260514	1.7810647132969688	0.3218350258675343	0.21844728705651095	1.631114095675377	0.2484884045756381	0.37482606880535513	1.4441576452842508	0.4038509838533931	0.3923381042643195	1.1669085070877971	0.3785786773362238	0.30716025544228687	0.9250922337598327	0.2685238259607144	0.24829048511013013	0.8570716166365608	0.19933638249503444	0.24921500842803282	0.8035091312676746	0.21448639921838866	0.26675683746052253	0.8003553847866817	0.26368481236545155	0.08954069505168394	1.433209207172635	0.407873872927814	0.1120738075437179	1.163659555091079	0.3636178054741714	0.16756334749855023	0.9448363647442523	0.2463991355526904	0.24295705482535196	0.871055334110263	0.2108616573669041	0.23533335242646997	0.8311107929613115	0.21428288716351923	0.20031572807129397	0.7958563137175184	0.2716309460166176	
1	0.0169491525423728	0.344172833980195	0.9966525380549671	0.40724483334214084	0.3422611256772736	0.5537648906969319	0.5340862062241363	0.3789506106800622	0.13762773222276167	0.6490107354629504	0.33974191843252755	0.10379357431086056	0.5101857253529071	0.39924399147090583	0.09730719762034001	0.5332988582298565	0.36828731796801717	0.05263977836236117	0.7615642287627347	0.1557037498315221	0.9897454682602708	0.40283074693094756	0.1723683338722146	0.5516110460031795	0.6111364101335952	0.18565662699308955	0.12488582282688554	0.69272805812695	0.19100497797176114	0.1169077877912553	0.5085746495947431	0.13909953577322098	0.09634870835809294	0.5768324916167252	0.20045808431880618	0.06326304971857319	0.7392672758804396	0.2298315193685885	1.528704649687854	0.34672203417516184	0.23553817760883444	1.7797404173778935	0.3212242163849755	0.22022881314345133	1.6305205818353439	0.2488038356140861	0.37562658457492043	1.4440332442490862	0.40397683221787867	0.3919638986356482	1.166768524473347	0.38121536188661265	0.30997542797144806	0.9263067647506574	0.26961906982549894	0.2492004379878059	0.8537316546348034	0.20167399585224802	0.24965089426789383	0.8049579093621821	0.2153464797132132	0.2727934706145022	0.803699688806035	0.26413671639077	0.08978288237733428	1.4303567527906489	0.4070463991683334	0.11181261936186038	1.162623791419622	0.36266540689009014	0.1679240620302955	0.9446569131381475	0.2465086290830996	0.24318002122820165	0.8723812518591886	0.21121961415230595	0.2370103464391638	0.8293557449878107	0.2267170704337879	0.20499629771289743	0.7954929412282191	0.27344360132319884	
2	0.0338983050847457	0.3446212559601558	0.9953556596014786	0.40570460210949666	0.34237653432738857	0.5523909539145925	0.5344885909084428	0.3783660773667663	0.13615672564861914	0.6506512537759126	0.3407572645494322	0.1019935353300293	0.5140110520231181	0.3998846293593096	0.09545443408805056	0.5343205235155055	0.3683393732772731	0.05100001487404729	0.7614890042276928	0.15495409547312355	0.987677763612258	0.4029763178184732	0.1719476266474433	0.5507202833777852	0.6118093474489468	0.18554579665017257	0.12447764264228033	0.6928794629964086	0.18979717899171464	0.11678027436830246	0.5078884502459869	0.1393281320568307	0.09759468091265515	0.576576103089944	0.20036914705964068	0.06311790111005912	0.7395917066723052	0.22982853617882115	1.5286900716366634	0.34665299750573264	0.23561774077111344	1.7788295410257644	0.32124073502832456	0.22142885476561075	1.6296288804985946	0.2500751558019134	0.375873469155165	1.4440145058122613	0.40399195035465996	0.3918260228050028	1.1667568965274573	0.3818114162598275	0.3113235495113725	0.9274458064317566	0.2701235717798621	0.24910641267152628	0.8513946988887738	0.20420107869905038	0.2499335888914167	0.8058643959532734	0.21561890172828885	0.27654145564975685	0.806302842274397	0.26396847348707697	0.08982869188219814	1.4287375226272965	0.40681487305782144	0.11189748646180475	1.1616461843545336	0.3618411108480639	0.1681919798760527	0.9446348289580038	0.24655812992618956	0.24336297295601197	0.8732122973271877	0.21147666494319542	0.2381718386341563	0.8284237898423389	0.23455274719952313	0.208100029632734	0.7952639427356262	0.27462908638840167	
3	0.0508474576271186	0.345076686270298	0.9943152222297911	0.40442524407587	0.34246005455808826	0.5511308866085813	0.5348309522518456	0.3779266297029999	0.13498672879025156	0.6521698545795753	0.3407603160910189	0.10172001558465923	0.514529534468001	0.3993906097179901	0.09490838472994398	0.5337818979023201	0.3683762840279352	0.049766942590807384	0.7614630169499159	0.1544313649067971	0.9860556572429067	0.4030958628006478	0.17173032157317863	0.549943539956576	0.6123599998519692	0.1854418356518695	0.12403466990153053	0.6930243373138559	0.18967443751920993	0.11711025150388538	0.5071287878396434	0.139452220506798	0.09827347116483845	0.5764406597774385	0.20029672442626736	0.0630399819998515	0.73991192149503	0.22982115411764487	1.5286765053598455	0.3466295290851058	0.2356107889641885	1.7782614963454475	0.32171981120554005	0.22216360395403378	1.6285252716063732	0.25201021661564105	0.3756711650335988	1.44406180885642	0.40391940996877246	0.3919638890885821	1.1668773425118257	0.38066695910298226	0.3115153978811367	0.9284997907644355	0.27016017903610634	0.24825008236317458	0.8499391441440831	0.2067419462291093	0.2500320402612207	0.8063395435911891	0.2155174624475673	0.27843082693159454	0.8082687780299206	0.2634183852732256	0.08972758698300339	1.4280994531004991	0.40703536053925554	0.11211791799922072	1.1608103018971332	0.3613917644871997	0.16831111512398747	0.9447249455422473	0.24657256394710483	0.24349982471392118	0.8736457539897087	0.21164014573353226	0.2388296423720838	0.8282100239483935	0.23866068793670697	0.20990030906113336	0.7952043318694357	0.27529204618947917	
4	0.0677966101694915	0.3455353326557811	0.9935090858106613	0.40338561880184515	0.34251497656158464	0.5499831782425838	0.5351177585138734	0.3776148308609747	0.13409587919660185	0.6535576498401309	0.3400527784233228	0.10253507485470342	0.5126971750984982	0.39818780340074666	0.0952901798581161	0.532213333545088	0.3683996762367036	0.04890266147723477	0.7614801557169805	0.15410699615886841	0.9848376611467787	0.4031907534475526	0.1716927542564188	0.5492733888266419	0.6127975103874964	0.18534477637945543	0.1235641741054033	0.6931623628147906	0.19034127655658215	0.11771738896165254	0.5063667613806093	0.13949678613889083	0.09852006466684687	0.5763899532514947	0.20023952220748692	0.06302187026883467	0.7402259135804651	0.22981153168912039	1.5286638959315035	0.34664064718142307	0.23560311930280592	1.777965695441809	0.32249667432458035	0.222549252739765	1.627296035099923	0.25431686953178984	0.37512411469773177	1.4441355322642058	0.40378228276525174	0.39241690980258487	1.1671335816881498	0.37808210906319056	0.31086175089981716	0.9294591497099999	0.2698517388065338	0.24687312026463404	0.8492433851463425	0.20912091363609278	0.24991519633992515	0.8064943048261694	0.215255959055	0.27889161882532343	0.8097014289107599	0.2627247533680689	0.08952903109647795	1.428190480628177	0.407563927555613	0.11226342312977805	1.1601997120487397	0.3615642149466041	0.16822548186226552	0.9448820962293031	0.2465768570109896	0.2435844912070675	0.8737789053222008	0.21171739251727625	0.2389955710135824	0.8286095437294716	0.23991166312132148	0.21067052122842525	0.7953491222593442	0.27553712570368444	
5	0.0847457627118644	0.3459934028617646	0.9929151102148464	0.4025645858480068	0.3425445905300895	0.5489463182802846	0.5353534779540556	0.3774132440129026	0.1334623144166132	0.6548057515237717	0.3389363569123797	0.10400077292011319	0.5094699763255537	0.39670208126137924	0.09622094978466084	0.5301451825985984	0.36841117592027833	0.04836927149792302	0.7615343093164638	0.15395242725566313	0.9839822873184368	0.403262361329269	0.17181126030416208	0.5487024030750745	0.6131310221003631	0.18525465121420528	0.12307342475466568	0.6932932212347108	0.19150221910616702	0.11842135650525104	0.5056734698737823	0.1394868139688773	0.098469446970883	0.5763877750843992	0.20019624619209997	0.06305614379789272	0.7405316761604612	0.22980182739730892	1.5286521884257425	0.346675370062827	0.23568052890171262	1.7778715504197162	0.3234065537934049	0.2227019931538495	1.62602745092049	0.25670296602688164	0.3743367606350745	1.4441960549182635	0.40360364044913455	0.39322449726321085	1.167529333318129	0.37435698478756707	0.3096733863864912	0.9303143152297557	0.26932109830344775	0.24521719957778848	0.8491858166411628	0.21116229611366916	0.2495520050901499	0.8064396322084548	0.2150481887345393	0.2783538656962525	0.8107047277550684	0.26212587939046084	0.08928248763934993	1.4287585416282522	0.40825664004987217	0.11212351100914675	1.1598979828106741	0.36260530936538526	0.1678790941790529	0.9450611143575972	0.24659593498298893	0.24361088714058965	0.8737090348001129	0.21171574128838785	0.238681437919289	0.8295174456090706	0.23917644322934928	0.21068405136493998	0.7957333275350478	0.2754689699082714	
